HIERARCHY
ROOT hip
{
  OFFSET 0 0 0
  CHANNELS 6 Xposition Yposition Zposition Zrotation Yrotation Xrotation
  JOINT abdomen
  {
    OFFSET 0 20.6881 -0.73152
    CHANNELS 3 Zrotation Xrotation Yrotation
    JOINT chest
    {
      OFFSET 0 11.7043 -0.48768
      CHANNELS 3 Zrotation Xrotation Yrotation
      JOINT neck
      {
        OFFSET 0 22.1894 -2.19456
        CHANNELS 3 Zrotation Xrotation Yrotation
        JOINT head
        {
          OFFSET -0.24384 7.07133 1.2192
          CHANNELS 3 Zrotation Xrotation Yrotation
          JOINT leftEye
          {
            OFFSET 4.14528 8.04674 8.04672
            CHANNELS 3 Zrotation Xrotation Yrotation
            End Site
            {
              OFFSET 1 0 0
            }
          }
          JOINT rightEye
          {
            OFFSET -3.6576 8.04674 8.04672
            CHANNELS 3 Zrotation Xrotation Yrotation
            End Site
            {
              OFFSET 1 0 0
            }
          }
        }
      }
      JOINT rCollar
      {
        OFFSET -2.68224 19.2634 -4.8768
        CHANNELS 3 Zrotation Xrotation Yrotation
        JOINT rShldr
        {
          OFFSET -8.77824 -1.95073 1.46304
          CHANNELS 3 Zrotation Xrotation Yrotation
          JOINT rForeArm
          {
            OFFSET -28.1742 -1.7115 0.48768
            CHANNELS 3 Zrotation Xrotation Yrotation
            JOINT rHand
            {
              OFFSET -22.5879 0.773209 7.07136
              CHANNELS 3 Zrotation Xrotation Yrotation
              JOINT rThumb1
              {
                OFFSET -1.2192 -0.487915 3.41376
                CHANNELS 3 Zrotation Xrotation Yrotation
                JOINT rThumb2
                {
                  OFFSET -3.37035 -0.52449 3.41376
                  CHANNELS 3 Zrotation Xrotation Yrotation
                  End Site
                  {
                    OFFSET -1.78271 -1.18214 1.43049
                  }
                }
              }
              JOINT rIndex1
              {
                OFFSET -7.75947 0.938293 5.60832
                CHANNELS 3 Zrotation Xrotation Yrotation
                JOINT rIndex2
                {
                  OFFSET -2.54057 -0.884171 1.56538
                  CHANNELS 3 Zrotation Xrotation Yrotation
                  End Site
                  {
                    OFFSET -1.62519 -0.234802 1.16502
                  }
                }
              }
              JOINT rMid1
              {
                OFFSET -8.24714 1.18213 3.41376
                CHANNELS 3 Zrotation Xrotation Yrotation
                JOINT rMid2
                {
                  OFFSET -3.10165 -0.590103 1.0647
                  CHANNELS 3 Zrotation Xrotation Yrotation
                  End Site
                  {
                    OFFSET -2.48547 -0.328903 0.83742
                  }
                }
              }
              JOINT rRing1
              {
                OFFSET -8.82822 0.546677 1.51678
                CHANNELS 3 Zrotation Xrotation Yrotation
                JOINT rRing2
                {
                  OFFSET -2.60934 -0.819778 -0.0198488
                  CHANNELS 3 Zrotation Xrotation Yrotation
                  End Site
                  {
                    OFFSET -2.33842 -0.294052 0.168128
                  }
                }
              }
              JOINT rPinky1
              {
                OFFSET -8.27202 -0.0477905 -0.4584
                CHANNELS 3 Zrotation Xrotation Yrotation
                JOINT rPinky2
                {
                  OFFSET -1.82734 -0.647385 -0.700984
                  CHANNELS 3 Zrotation Xrotation Yrotation
                  End Site
                  {
                    OFFSET -1.69225 -0.51767 -0.607171
                  }
                }
              }
            }
          }
        }
      }
      JOINT lCollar
      {
        OFFSET 2.68224 19.2634 -4.8768
        CHANNELS 3 Zrotation Xrotation Yrotation
        JOINT lShldr
        {
          OFFSET 8.77824 -1.95073 1.46304
          CHANNELS 3 Zrotation Xrotation Yrotation
          JOINT lForeArm
          {
            OFFSET 28.1742 -1.7115 0.48768
            CHANNELS 3 Zrotation Xrotation Yrotation
            JOINT lHand
            {
              OFFSET 22.5879 0.773209 7.07136
              CHANNELS 3 Zrotation Xrotation Yrotation
              JOINT lThumb1
              {
                OFFSET 1.2192 -0.487915 3.41376
                CHANNELS 3 Zrotation Xrotation Yrotation
                JOINT lThumb2
                {
                  OFFSET 3.37035 -0.52449 3.41376
                  CHANNELS 3 Zrotation Xrotation Yrotation
                  End Site
                  {
                    OFFSET 1.78271 -1.18214 1.43049
                  }
                }
              }
              JOINT lIndex1
              {
                OFFSET 7.75947 0.938293 5.60832
                CHANNELS 3 Zrotation Xrotation Yrotation
                JOINT lIndex2
                {
                  OFFSET 2.54057 -0.884171 1.56538
                  CHANNELS 3 Zrotation Xrotation Yrotation
                  End Site
                  {
                    OFFSET 1.62519 -0.234802 1.16502
                  }
                }
              }
              JOINT lMid1
              {
                OFFSET 8.24714 1.18213 3.41376
                CHANNELS 3 Zrotation Xrotation Yrotation
                JOINT lMid2
                {
                  OFFSET 3.10165 -0.590103 1.0647
                  CHANNELS 3 Zrotation Xrotation Yrotation
                  End Site
                  {
                    OFFSET 2.48547 -0.328903 0.83742
                  }
                }
              }
              JOINT lRing1
              {
                OFFSET 8.82822 0.546677 1.51678
                CHANNELS 3 Zrotation Xrotation Yrotation
                JOINT lRing2
                {
                  OFFSET 2.60934 -0.819778 -0.0198488
                  CHANNELS 3 Zrotation Xrotation Yrotation
                  End Site
                  {
                    OFFSET 2.33842 -0.294052 0.168128
                  }
                }
              }
              JOINT lPinky1
              {
                OFFSET 8.27202 -0.0477905 -0.4584
                CHANNELS 3 Zrotation Xrotation Yrotation
                JOINT lPinky2
                {
                  OFFSET 1.82734 -0.647385 -0.700984
                  CHANNELS 3 Zrotation Xrotation Yrotation
                  End Site
                  {
                    OFFSET 1.69225 -0.51767 -0.607171
                  }
                }
              }
            }
          }
        }
      }
    }
  }
  JOINT rButtock
  {
    OFFSET -8.77824 4.35084 1.2192
    CHANNELS 3 Zrotation Xrotation Yrotation
    JOINT rThigh
    {
      OFFSET 0 -1.70687 -2.19456
      CHANNELS 3 Zrotation Xrotation Yrotation
      JOINT rShin
      {
        OFFSET 0 -36.8199 0.73152
        CHANNELS 3 Zrotation Xrotation Yrotation
        JOINT rFoot
        {
          OFFSET 0.73152 -45.1104 -5.12064
          CHANNELS 3 Zrotation Xrotation Yrotation
          End Site
          {
            OFFSET -1.1221 -3.69964 12.103
          }
        }
      }
    }
  }
  JOINT lButtock
  {
    OFFSET 8.77824 4.35084 1.2192
    CHANNELS 3 Zrotation Xrotation Yrotation
    JOINT lThigh
    {
      OFFSET 0 -1.70687 -2.19456
      CHANNELS 3 Zrotation Xrotation Yrotation
      JOINT lShin
      {
        OFFSET 0 -36.8199 0.73152
        CHANNELS 3 Zrotation Xrotation Yrotation
        JOINT lFoot
        {
          OFFSET -0.73152 -45.1104 -5.12064
          CHANNELS 3 Zrotation Xrotation Yrotation
          End Site
          {
            OFFSET 1.1221 -3.69964 12.103
          }
        }
      }
    }
  }
}
MOTION
Frames:	10
Frame Time:	0.00833333
0.0 0.0 0.0 0.0 0.0 0.0 0.0 0.0 0.0 0.0 0.0 0.0 0.0 0.0 0.0 0.0 0.0 0.0 0.0 0.0 0.0 0.0 0.0 0.0 0.0 0.0 0.0 0.0 0.0 0.0 0.0 0.0 0.0 0.0 0.0 0.0 0.0 0.0 0.0 0.0 0.0 0.0 0.0 0.0 0.0 0.0 0.0 0.0 0.0 0.0 0.0 0.0 0.0 0.0 0.0 0.0 0.0 0.0 0.0 0.0 0.0 0.0 0.0 0.0 0.0 0.0 0.0 0.0 0.0 0.0 0.0 0.0 0.0 0.0 0.0 0.0 0.0 0.0 0.0 0.0 0.0 0.0 0.0 0.0 0.0 0.0 0.0 0.0 0.0 0.0 0.0 0.0 0.0 0.0 0.0 0.0 0.0 0.0 0.0 0.0 0.0 0.0 0.0 0.0 0.0 0.0 0.0 0.0 0.0 0.0 0.0 0.0 0.0 0.0 0.0 0.0 0.0 0.0 0.0 0.0 0.0 0.0 0.0 0.0 0.0 0.0 0.0 0.0 0.0 0.0 0.0 0.0
10.5585 55.61079999999999 70.4184 0.0 -0.0 -0.0 -0.0 -4.771896 -180.0 0.0 -4.771896 -180.0 0.031665 -0.00628 0.183597 -0.031644 0.006382 -0.183594 0.0 -0.0 -0.0 0.0 -0.0 -0.0 -155.542264 -3.763858 161.891395 -77.590059 69.023033 98.216678 -13.758409 82.265788 16.773041 -2.25609 7.221185 -0.105068 27.451228 -26.099095 2.267476 -141.377308 -32.183338 127.195948 -83.732676 42.330462 69.989987 3.994903 5.083507 -13.630235 -39.289155 53.36602 32.877985 -164.276157 -4.236127 145.938607 0.004871 1.772325 0.55677 -85.526968 79.093408 88.457817 -103.687757 -45.141178 -101.853968 -145.869217 12.909809 -145.080357 114.016655 63.205402 -117.528531 -18.338457 16.202611 -2.400288 -85.136387 76.726081 111.050689 174.757819 27.663061 -143.942026 176.927678 -14.532472 -89.65859 152.877224 5.4866 -81.457348 151.353117 -17.158427 -121.133109 23.127584 52.150033 -20.136752 0.057679 0.167876 -0.032027 90.737199 64.142951 -79.28924 73.163647 -72.142466 90.198134 128.349713 56.748831 -145.55353 77.071637 -51.585313 75.529817 145.14222 7.680795 144.212001 -180.0 75.749642 -0.0 -180.0 75.749642 -0.0 7.020854 4.02674 75.890629 -73.874754 -79.758678 -170.673956 -180.0 75.749642 -0.0 -180.0 75.749642 -0.0 5.091369 3.859167 58.047306 34.751348 -52.463033 -60.166548
10.5558 55.6114 70.4193 -0.0 0.0 -0.0 -0.0 0.0 -0.0 0.0 -0.0 0.0 3.603713 -0.062968 20.618464 -3.351337 1.327123 -20.577658 -0.0 -0.0 0.0 -0.0 -0.0 0.0 2.52639 -18.844059 -3.786503 -149.760377 73.843572 149.874341 164.969579 -3.580782 165.350681 -97.032606 74.43992 77.459463 -6.581133 6.344846 1.36571 -159.415292 -66.128624 111.886293 -108.427673 34.160977 91.742903 -59.183225 62.81236 41.478473 -8.41658 20.880424 5.645309 -15.172551 36.38591 9.066944 -0.021291 -1.725169 -0.542387 -1.411089 15.880983 2.553748 -135.820882 -11.891747 -133.184746 -158.001423 56.125122 -148.889265 155.716846 -4.925325 -162.135615 147.311413 20.895112 -158.874807 -171.75809 -31.750869 -139.956386 -178.965514 9.226122 -145.317007 176.59845 -14.213085 -89.690967 -179.20599 -17.019217 -97.461332 90.225558 41.072425 -75.796697 162.884916 -11.172384 -124.529223 160.673322 -6.667841 -143.245105 12.7725 39.534101 -12.956827 145.099691 -1.522044 178.64987 -22.356863 39.910525 4.092949 125.807905 -27.87746 123.551547 -16.769562 41.421722 -8.640387 -0.0 -0.0 -0.0 -0.0 0.0 -0.0 7.208321 4.544735 80.680675 -149.380334 20.98295 86.33848 -0.0 -0.0 -0.0 -0.0 0.0 -0.0 -5.060545 1.394821 -47.061819 136.808407 5.24809 -56.505835
10.5587 55.61430000000001 70.4175 0.0 -0.0 -0.0 -0.0 -4.771896 -180.0 0.0 -4.771896 -180.0 -1.239633 0.331232 -7.299189 1.271675 -0.170986 7.30467 0.0 -0.0 -0.0 0.0 -0.0 -0.0 -80.1661 68.371792 83.260848 -155.990846 -7.225237 179.4961 -77.809797 84.371822 79.87323 1.181167 -3.752543 0.167254 -176.533161 -14.149652 89.697164 147.088801 -48.335189 101.264426 -27.421557 30.63922 20.098782 79.670061 -67.931802 38.627268 -160.740858 -6.876805 143.276633 -33.455629 55.925248 31.206745 -0.005123 -0.560267 -0.176048 -165.675558 -0.781507 171.767793 -153.516664 42.537028 -148.492473 -157.307292 43.740175 -145.05235 80.1661 68.371792 -83.260848 155.991316 -7.170251 -179.492702 -150.219375 -77.773906 -112.937574 -174.997547 -3.437509 -145.083331 -116.309427 -50.010152 -56.954107 18.150401 -49.852731 28.649999 127.853541 18.70338 -107.507054 176.910795 -56.450092 -118.023033 -68.983989 -80.15399 -40.578188 126.803668 49.77764 -114.890268 145.118942 0.185466 179.186604 139.012982 -38.858927 171.913355 -0.465225 1.226425 -0.428913 79.56867 -54.730185 76.710883 -180.0 75.749642 -0.0 -180.0 75.749642 -0.0 7.020854 4.02674 75.890629 -73.874754 -79.758678 -170.673956 -180.0 75.749642 -0.0 -180.0 75.749642 -0.0 5.091369 3.859167 58.047306 34.751348 -52.463033 -60.166548
10.558 55.6295 70.4197 0.0 -0.0 -0.0 -0.0 -4.771896 -180.0 0.0 -4.771896 -180.0 -8.072185 8.718885 -71.807182 10.785093 4.96472 71.954626 0.0 -0.0 -0.0 0.0 -0.0 -0.0 4.239307 -44.742767 -8.647656 82.087236 -83.524852 81.044277 63.026598 77.942836 -61.761247 -19.990861 49.149357 7.387044 6.463714 -6.452652 -0.634888 -106.319804 12.161403 96.180056 -14.228542 19.203392 9.559881 -71.284923 51.681698 44.22954 -0.571049 1.648356 0.322148 -12.192545 29.406415 7.189407 0.004873 1.771387 0.556475 -0.129728 -0.088753 -0.347165 32.017443 83.320556 6.228541 -34.962959 -43.667097 -35.280334 155.716846 -4.925325 -162.135615 -17.515458 2.235517 -16.616706 173.027084 1.311946 -177.937839 0.003457 0.011043 0.000378 175.19822 -12.846093 -89.807639 -55.927565 -70.104013 -42.736735 -12.216524 -21.784719 5.120188 -5.024422 -1.998851 -3.370813 36.036059 51.723116 -29.832321 15.209316 40.728764 -9.537027 72.757246 -72.143382 89.772159 -14.59322 0.775415 -5.903617 141.16344 0.470208 138.191234 145.464153 13.668408 142.797264 -0.0 -0.0 -0.0 -0.0 0.0 -0.0 7.051593 4.103085 76.605942 -9.822236 25.402756 -69.296596 -0.0 -0.0 -0.0 -0.0 0.0 -0.0 3.117632 1.327455 29.85905 -142.233061 -17.083429 25.887073
10.5571 55.640299999999996 70.4059 -0.0 0.0 -0.0 -0.0 0.0 -0.0 0.0 -0.0 0.0 3.603713 -0.062968 20.618464 -3.351337 1.327123 -20.577658 -0.0 0.0 -0.0 -0.0 0.0 -0.0 2.52639 -18.844059 -3.786503 -149.760377 73.843572 149.874341 164.969579 -3.580782 165.350681 -97.032606 74.43992 77.459463 -6.581133 6.344846 1.36571 -159.415292 -66.128624 111.886293 -108.427673 34.160977 91.742903 -59.183225 62.81236 41.478473 -8.41658 20.880424 5.645309 -15.172551 36.38591 9.066944 -0.021291 -1.725169 -0.542387 -1.411089 15.880983 2.553748 -135.820882 -11.891747 -133.184746 -158.001423 56.125122 -148.889265 155.716846 -4.925325 -162.135615 147.311413 20.895112 -158.874807 -171.75809 -31.750869 -139.956386 -178.965514 9.226122 -145.317007 -27.451228 -26.099095 -2.267476 103.215366 28.015895 -86.15932 148.886119 -12.609784 -120.244776 93.400184 55.198874 -83.464058 -0.047552 -0.138632 0.026316 175.142312 -30.845427 -144.093014 0.022684 -1.805646 0.567716 161.305337 32.512556 -165.986078 146.206697 15.40572 142.730862 138.692357 -5.031519 136.781407 -0.0 -0.0 -0.0 -0.0 0.0 -0.0 7.208321 4.544735 80.680675 -149.380334 20.98295 86.33848 -0.0 -0.0 -0.0 -0.0 0.0 -0.0 -5.060545 1.394821 -47.061819 136.808407 5.24809 -56.505835
10.5566 55.6497 70.3914 0.0 -0.0 -0.0 -0.0 -4.771896 -180.0 0.0 -4.771896 -180.0 -7.958507 8.003481 -67.70405 10.406538 4.346583 67.86569 0.0 -0.0 -0.0 0.0 -0.0 -0.0 -157.371212 -17.927615 164.690685 97.404566 -73.807394 77.435132 137.325462 70.930985 -164.864034 -173.927486 29.79746 143.616501 -179.373341 -16.877168 89.359733 -126.860853 16.426052 62.704588 -85.857435 41.978863 71.894296 -15.743141 40.260515 -0.767341 -171.869892 -41.091283 145.160004 -156.694915 6.067962 139.712271 -71.925376 72.974006 89.771887 -172.895776 64.491041 -174.328619 7.928213 24.811638 7.002569 -163.267776 53.769064 -147.97451 153.979587 5.407385 -159.825069 -22.350708 -9.867401 -14.220984 0.43326 -15.36437 33.66594 -163.004388 -34.834061 -139.866372 4.034931 3.931563 -0.75474 0.144736 0.978302 -2.754928 98.707864 38.541278 -83.307059 16.856203 44.398854 -1.34632 160.09819 -4.901163 -142.968881 178.307885 -51.494883 -140.27156 31.710267 -66.108601 46.284392 162.168105 -47.597356 -167.83915 145.173549 12.06758 141.82295 149.340031 24.957448 144.413026 -0.0 -0.0 -0.0 -0.0 0.0 -0.0 7.051593 4.103085 76.605942 -9.822236 25.402756 -69.296596 -0.0 -0.0 -0.0 -0.0 0.0 -0.0 3.117632 1.327455 29.85905 -142.233061 -17.083429 25.887073
10.5553 55.65789999999999 70.3767 0.0 -0.0 -0.0 -0.0 -4.771896 -180.0 0.0 -4.771896 -180.0 0.031665 -0.00628 0.183597 -0.031644 0.006382 -0.183594 0.0 -0.0 -0.0 0.0 -0.0 -0.0 -155.542264 -3.763858 161.891395 -77.590059 69.023033 98.216678 4.6044 74.29462 -0.971271 -4.908516 15.5286 0.13464 -178.927535 -16.453687 89.421826 122.000677 -64.240532 91.618074 37.215945 -57.917763 -0.643014 1.809112 12.034191 8.350904 -153.32078 13.628946 138.862343 84.192195 -78.931946 52.559786 -65.586308 -72.006241 -82.254077 -140.257775 39.847348 156.440913 -126.797849 -26.619602 -124.512652 -164.94951 73.357681 -148.155969 114.016655 63.205402 -117.528531 -18.338457 16.202611 -2.400288 62.694421 -78.337458 72.264369 -11.661626 -31.958919 -4.487634 -3.050796 -3.032564 0.389644 37.596979 27.140722 -32.22389 -169.568139 -65.842545 -109.956128 -6.42371 20.802214 -5.087509 -68.983989 -80.15399 -40.578188 164.219303 -6.175065 -140.206686 -0.000474 0.063711 -0.020016 165.724543 -0.758013 -171.882201 145.173549 12.06758 141.82295 7.302893 -23.732672 12.253103 -180.0 75.749642 -0.0 -180.0 75.749642 -0.0 7.020854 4.02674 75.890629 -73.874754 -79.758678 -170.673956 -180.0 75.749642 -0.0 -180.0 75.749642 -0.0 5.091369 3.859167 58.047306 34.751348 -52.463033 -60.166548
10.5533 55.6648 70.3634 0.0 -0.0 -0.0 -0.0 0.0 -0.0 0.0 -0.0 -0.0 -7.742327 12.716888 -94.844089 12.029449 8.780918 94.781155 -0.0 -0.0 0.0 -0.0 -0.0 0.0 -80.1661 68.371792 83.260848 -155.991316 -7.170251 179.492702 122.609956 -80.444742 85.610706 176.729101 2.080391 145.29294 -168.137259 -5.814928 89.87141 111.409359 -61.107493 81.296395 -151.353117 -17.158427 121.133109 -27.554176 53.833748 24.042722 -173.037515 -44.087847 144.930636 -176.357531 -42.538888 139.778798 -145.099691 -1.522044 -178.64987 -144.499522 -5.356106 -178.815186 -124.851156 -29.038378 -122.621388 -22.043959 -41.753135 -25.048435 59.831151 -86.72152 81.631739 -28.495314 -58.145419 -28.984777 177.791603 45.510085 179.932393 5.264705 16.610959 -0.196156 166.631339 -4.304864 -89.77151 71.110197 0.251439 -23.292611 0.327682 0.529888 -0.186114 5.924162 7.983056 -1.467026 -173.123457 -66.297779 -137.614274 -163.280133 -63.251871 -126.65304 145.099706 -1.521107 178.650165 -22.217259 29.186676 5.362701 25.537984 -38.087442 24.598474 19.785693 -38.385904 19.135259 -0.0 -0.0 -0.0 -0.0 0.0 -0.0 7.051593 4.103085 76.605942 -5.358042 3.966577 -77.188561 -0.0 -0.0 -0.0 -0.0 0.0 -0.0 3.117632 1.327455 29.85905 -142.233061 -17.083429 25.887073
10.5593 55.6708 70.3516 0.0 -0.0 -0.0 -0.0 0.0 -0.0 0.0 -0.0 -0.0 -7.742327 12.716888 -94.844089 12.029449 8.780918 94.781155 -0.0 -0.0 0.0 -0.0 -0.0 0.0 -80.1661 68.371792 83.260848 -155.991316 -7.170251 179.492702 122.609956 -80.444742 85.610706 176.729101 2.080391 145.29294 -168.137259 -5.814928 89.87141 111.409359 -61.107493 81.296395 -151.353117 -17.158427 121.133109 -27.554176 53.833748 24.042722 -173.037515 -44.087847 144.930636 -176.357531 -42.538888 139.778798 -145.099691 -1.522044 -178.64987 -144.499522 -5.356106 -178.815186 -124.851156 -29.038378 -122.621388 -22.043959 -41.753135 -25.048435 59.831151 -86.72152 81.631739 -28.495314 -58.145419 -28.984777 177.791603 45.510085 179.932393 5.264705 16.610959 -0.196156 166.631339 -4.304864 -89.77151 71.110197 0.251439 -23.292611 0.327682 0.529888 -0.186114 5.924162 7.983056 -1.467026 -173.123457 -66.297779 -137.614274 -163.280133 -63.251871 -126.65304 145.099706 -1.521107 178.650165 -22.217259 29.186676 5.362701 25.537984 -38.087442 24.598474 19.785693 -38.385904 19.135259 -0.0 -0.0 -0.0 -0.0 0.0 -0.0 7.051593 4.103085 76.605942 -5.358042 3.966577 -77.188561 -0.0 -0.0 -0.0 -0.0 0.0 -0.0 3.117632 1.327455 29.85905 -142.233061 -17.083429 25.887073
